<svg width="22" height="28" viewBox="0 0 22 28" fill="none" xmlns="http://www.w3.org/2000/svg">
<path d="M11 0.120117C8.08369 0.123507 5.28779 1.26662 3.22564 3.2987C1.16348 5.33078 0.00345217 8.08591 1.17029e-05 10.9597C-0.00348119 13.3082 0.774992 15.5929 2.21601 17.4635C2.21601 17.4635 2.51601 17.8527 2.56501 17.9089L11 27.7118L19.439 17.9039C19.483 17.8517 19.784 17.4635 19.784 17.4635L19.785 17.4605C21.2253 15.5908 22.0034 13.3071 22 10.9597C21.9966 8.08591 20.8365 5.33078 18.7744 3.2987C16.7122 1.26662 13.9163 0.123507 11 0.120117ZM11 14.9014C10.2089 14.9014 9.43553 14.6702 8.77773 14.2371C8.11993 13.804 7.60724 13.1884 7.30449 12.4681C7.00174 11.7479 6.92253 10.9553 7.07687 10.1907C7.23121 9.42611 7.61217 8.72377 8.17158 8.17252C8.73099 7.62127 9.44373 7.24586 10.2197 7.09377C10.9956 6.94168 11.7998 7.01974 12.5307 7.31808C13.2616 7.61641 13.8864 8.12162 14.3259 8.76983C14.7654 9.41803 15 10.1801 15 10.9597C14.9987 12.0047 14.5768 13.0065 13.827 13.7454C13.0771 14.4844 12.0605 14.9001 11 14.9014Z" fill="black"/>
</svg>
