<svg width="29" height="29" viewBox="0 0 29 29" fill="none" xmlns="http://www.w3.org/2000/svg">
<path d="M3.323 3.92712L5.83633 4.36212L6.99996 18.2253C7.04465 18.7709 7.29339 19.2795 7.69654 19.6497C8.09969 20.0199 8.62761 20.2245 9.17496 20.2227H22.3579C22.882 20.2233 23.3886 20.0346 23.7847 19.6914C24.1808 19.3482 24.4396 18.8735 24.5135 18.3546L25.6615 10.4304C25.6921 10.2196 25.6808 10.0049 25.6284 9.79852C25.5759 9.59213 25.4833 9.39809 25.3558 9.22751C25.2283 9.05693 25.0685 8.91315 24.8854 8.8044C24.7023 8.69565 24.4996 8.62405 24.2888 8.59371C24.2115 8.58525 6.23991 8.57921 6.23991 8.57921" stroke="white" stroke-width="1.5" stroke-linecap="round" stroke-linejoin="round"/>
<path d="M17.0679 13.0439H20.4186" stroke="white" stroke-width="1.5" stroke-linecap="round" stroke-linejoin="round"/>
<path fill-rule="evenodd" clip-rule="evenodd" d="M8.64454 24.412C8.73315 24.4082 8.82162 24.4224 8.90461 24.4536C8.9876 24.4849 9.0634 24.5327 9.12745 24.594C9.19149 24.6554 9.24246 24.7291 9.27728 24.8107C9.3121 24.8922 9.33005 24.98 9.33005 25.0687C9.33005 25.1574 9.3121 25.2452 9.27728 25.3268C9.24246 25.4083 9.19149 25.482 9.12745 25.5434C9.0634 25.6047 8.9876 25.6525 8.90461 25.6838C8.82162 25.7151 8.73315 25.7292 8.64454 25.7254C8.47524 25.7182 8.31528 25.6458 8.19805 25.5234C8.08082 25.4011 8.01538 25.2382 8.01538 25.0687C8.01538 24.8993 8.08082 24.7363 8.19805 24.614C8.31528 24.4916 8.47524 24.4192 8.64454 24.412Z" fill="#272343" stroke="white" stroke-width="1.5" stroke-linecap="round" stroke-linejoin="round"/>
<path fill-rule="evenodd" clip-rule="evenodd" d="M22.2757 24.412C22.4504 24.412 22.6179 24.4814 22.7414 24.6049C22.8649 24.7284 22.9343 24.8959 22.9343 25.0705C22.9343 25.2452 22.8649 25.4127 22.7414 25.5362C22.6179 25.6597 22.4504 25.7291 22.2757 25.7291C22.1011 25.7291 21.9336 25.6597 21.8101 25.5362C21.6866 25.4127 21.6172 25.2452 21.6172 25.0705C21.6172 24.8959 21.6866 24.7284 21.8101 24.6049C21.9336 24.4814 22.1011 24.412 22.2757 24.412Z" fill="#272343" stroke="white" stroke-width="1.5" stroke-linecap="round" stroke-linejoin="round"/>
</svg>
