<svg width="20" height="19" viewBox="0 0 20 19" fill="none" xmlns="http://www.w3.org/2000/svg">
<path d="M1.52087 0.979126L3.42754 1.30913L4.31029 11.826C4.3442 12.2399 4.5329 12.6257 4.83873 12.9066C5.14457 13.1875 5.54506 13.3427 5.96029 13.3413H15.9611C16.3587 13.3417 16.7431 13.1986 17.0436 12.9382C17.344 12.6778 17.5404 12.3177 17.5965 11.9241L18.4673 5.91263C18.4905 5.75275 18.482 5.58987 18.4422 5.43329C18.4024 5.27671 18.3322 5.12951 18.2354 5.00011C18.1387 4.8707 18.0175 4.76163 17.8786 4.67913C17.7397 4.59663 17.5859 4.54231 17.426 4.51929C17.3673 4.51288 3.73371 4.50829 3.73371 4.50829" stroke="#272343" stroke-width="1.5" stroke-linecap="round" stroke-linejoin="round"/>
<path d="M11.948 7.89539H14.4899" stroke="#272343" stroke-width="1.5" stroke-linecap="round" stroke-linejoin="round"/>
<path fill-rule="evenodd" clip-rule="evenodd" d="M5.55786 16.5194C5.62508 16.5165 5.69219 16.5272 5.75515 16.551C5.81811 16.5747 5.87562 16.611 5.9242 16.6575C5.97279 16.704 6.01145 16.7599 6.03787 16.8218C6.06428 16.8837 6.0779 16.9503 6.0779 17.0176C6.0779 17.0849 6.06428 17.1515 6.03787 17.2133C6.01145 17.2752 5.97279 17.3311 5.9242 17.3777C5.87562 17.4242 5.81811 17.4605 5.75515 17.4842C5.69219 17.5079 5.62508 17.5187 5.55786 17.5158C5.42942 17.5103 5.30808 17.4554 5.21914 17.3626C5.13021 17.2697 5.08057 17.1461 5.08057 17.0176C5.08057 16.889 5.13021 16.7654 5.21914 16.6726C5.30808 16.5798 5.42942 16.5249 5.55786 16.5194Z" fill="#272343" stroke="#272343" stroke-width="1.5" stroke-linecap="round" stroke-linejoin="round"/>
<path fill-rule="evenodd" clip-rule="evenodd" d="M15.8988 16.5194C16.0312 16.5194 16.1583 16.572 16.252 16.6657C16.3457 16.7594 16.3983 16.8865 16.3983 17.019C16.3983 17.1515 16.3457 17.2786 16.252 17.3723C16.1583 17.4659 16.0312 17.5186 15.8988 17.5186C15.7663 17.5186 15.6392 17.4659 15.5455 17.3723C15.4518 17.2786 15.3992 17.1515 15.3992 17.019C15.3992 16.8865 15.4518 16.7594 15.5455 16.6657C15.6392 16.572 15.7663 16.5194 15.8988 16.5194Z" fill="#272343" stroke="#272343" stroke-width="1.5" stroke-linecap="round" stroke-linejoin="round"/>
</svg>
