<svg width="16" height="16" viewBox="0 0 16 16" fill="none" xmlns="http://www.w3.org/2000/svg">
<g clip-path="url(#clip0_13_1182)">
<path d="M16 8C16 3.58167 12.4183 0 8 0C3.58167 0 0 3.58167 0 8C0 11.993 2.92533 15.3027 6.75 15.9027V10.3127H4.71867V8H6.75V6.23733C6.75 4.23267 7.94433 3.125 9.77167 3.125C10.6467 3.125 11.5623 3.28133 11.5623 3.28133V5.25H10.5537C9.56 5.25 9.25 5.86667 9.25 6.5V8H11.4687L11.114 10.3127H9.25V15.9027C13.0747 15.3027 16 11.9927 16 8Z" fill="#007580"/>
</g>
<defs>
<clipPath id="clip0_13_1182">
<rect width="16" height="16" fill="white"/>
</clipPath>
</defs>
</svg>
