<svg width="14" height="14" viewBox="0 0 14 14" fill="none" xmlns="http://www.w3.org/2000/svg">
<path d="M9.6665 3.66667C9.6665 3.48986 9.73674 3.32029 9.86177 3.19526C9.98679 3.07024 10.1564 3 10.3332 3C10.51 3 10.6796 3.07024 10.8046 3.19526C10.9296 3.32029 10.9998 3.48986 10.9998 3.66667C10.9998 3.84348 10.9296 4.01305 10.8046 4.13807C10.6796 4.2631 10.51 4.33333 10.3332 4.33333C10.1564 4.33333 9.98679 4.2631 9.86177 4.13807C9.73674 4.01305 9.6665 3.84348 9.6665 3.66667Z" fill="#636270"/>
<path fill-rule="evenodd" clip-rule="evenodd" d="M6.99992 3.83331C6.16007 3.83331 5.35461 4.16694 4.76075 4.76081C4.16688 5.35467 3.83325 6.16013 3.83325 6.99998C3.83325 7.83983 4.16688 8.64529 4.76075 9.23915C5.35461 9.83302 6.16007 10.1666 6.99992 10.1666C7.83977 10.1666 8.64523 9.83302 9.23909 9.23915C9.83296 8.64529 10.1666 7.83983 10.1666 6.99998C10.1666 6.16013 9.83296 5.35467 9.23909 4.76081C8.64523 4.16694 7.83977 3.83331 6.99992 3.83331ZM4.83325 6.99998C4.83325 6.42534 5.06153 5.87424 5.46785 5.46792C5.87418 5.06159 6.42528 4.83331 6.99992 4.83331C7.57455 4.83331 8.12565 5.06159 8.53198 5.46792C8.93831 5.87424 9.16659 6.42534 9.16659 6.99998C9.16659 7.57462 8.93831 8.12572 8.53198 8.53204C8.12565 8.93837 7.57455 9.16665 6.99992 9.16665C6.42528 9.16665 5.87418 8.93837 5.46785 8.53204C5.06153 8.12572 4.83325 7.57462 4.83325 6.99998Z" fill="#636270"/>
<path fill-rule="evenodd" clip-rule="evenodd" d="M10.5053 0.888648C8.17554 0.630379 5.82438 0.630379 3.49462 0.888648C2.15329 1.03865 1.06996 2.09532 0.912622 3.44332C0.636222 5.80637 0.636222 8.19359 0.912622 10.5566C1.06996 11.9046 2.15262 12.9613 3.49462 13.1113C5.80529 13.3693 8.19462 13.3693 10.5053 13.1113C11.8466 12.9613 12.93 11.9046 13.0873 10.5566C13.3637 8.19359 13.3637 5.80637 13.0873 3.44332C12.93 2.09532 11.8473 1.03865 10.5053 0.888648ZM3.60529 1.88198C5.86149 1.6319 8.13842 1.6319 10.3946 1.88198C11.2813 1.98198 11.9913 2.68132 12.0946 3.55998C12.3619 5.84553 12.3619 8.15444 12.0946 10.44C11.9913 11.3186 11.2813 12.0186 10.3946 12.1173C8.13842 12.3674 5.86149 12.3674 3.60529 12.1173C2.71862 12.0186 2.00862 11.3186 1.90529 10.44C1.63799 8.15444 1.63799 5.84553 1.90529 3.55998C2.00862 2.68132 2.71862 1.98132 3.60529 1.88265V1.88198Z" fill="#636270"/>
</svg>
