<svg width="227" height="27" viewBox="0 0 227 27" fill="none" xmlns="http://www.w3.org/2000/svg">
<g opacity="0.5">
<path d="M35.6523 20.3936V19.9616H35.5399L35.4097 20.258L35.2803 19.9616H35.1675V20.3936H35.2474V20.0682L35.3691 20.3489H35.4519L35.5735 20.0674V20.3936H35.6527H35.6523ZM34.9387 20.3936V20.0356H35.0827V19.9627H34.7148V20.0356H34.8588V20.3936H34.938H34.9387Z" fill="#F79410"/>
<path d="M22.8676 22.2466H13.1333V4.75275H22.8677L22.8676 22.2466Z" fill="#FF5F00"/>
<path d="M13.7503 13.5C13.7503 9.95139 15.4118 6.79027 17.9992 4.7531C16.0407 3.2088 13.6183 2.37066 11.1242 2.37434C4.98034 2.37434 0 7.3554 0 13.5C0 19.6446 4.98034 24.6257 11.1242 24.6257C13.6184 24.6294 16.0408 23.7913 17.9994 22.2469C15.4122 20.2101 13.7503 17.0488 13.7503 13.5Z" fill="#EB001B"/>
<path d="M35.9998 13.5C35.9998 19.6446 31.0194 24.6257 24.8756 24.6257C22.3811 24.6293 19.9584 23.7912 17.9995 22.2469C20.5876 20.2098 22.2491 17.0488 22.2491 13.5C22.2491 9.95121 20.5876 6.79027 17.9995 4.7531C19.9584 3.20885 22.381 2.37072 24.8754 2.37434C31.0193 2.37434 35.9996 7.3554 35.9996 13.5" fill="#F79E1B"/>
<path d="M52.7198 6.03955H48.3641C48.2199 6.03946 48.0804 6.09087 47.9707 6.18452C47.8611 6.27817 47.7885 6.40791 47.766 6.55035L46.0044 17.7197C45.9963 17.7715 45.9995 17.8245 46.0138 17.8749C46.0282 17.9254 46.0533 17.9721 46.0874 18.012C46.1215 18.0518 46.1639 18.0838 46.2116 18.1056C46.2593 18.1275 46.3111 18.1388 46.3636 18.1387H48.443C48.5873 18.1388 48.7269 18.0873 48.8366 17.9935C48.9462 17.8998 49.0188 17.7699 49.0411 17.6273L49.5162 14.6148C49.5385 14.4723 49.611 14.3425 49.7205 14.2488C49.83 14.155 49.9695 14.1034 50.1136 14.1033H51.4925C54.3618 14.1033 56.0177 12.7149 56.4502 9.96349C56.6451 8.75975 56.4584 7.81396 55.8948 7.15158C55.2757 6.42424 54.1777 6.03955 52.7198 6.03955ZM53.2223 10.1189C52.9841 11.6819 51.79 11.6819 50.6353 11.6819H49.978L50.4391 8.76294C50.4526 8.67754 50.4961 8.59977 50.5619 8.54361C50.6276 8.48745 50.7112 8.45659 50.7977 8.45659H51.0989C51.8855 8.45659 52.6275 8.45659 53.0109 8.90497C53.2395 9.17246 53.3096 9.56989 53.2223 10.1189ZM65.74 10.0686H63.6541C63.5677 10.0686 63.4841 10.0994 63.4183 10.1556C63.3526 10.2118 63.3091 10.2895 63.2956 10.3749L63.2032 10.9583L63.0574 10.7469C62.6058 10.0915 61.5989 9.87242 60.5938 9.87242C58.2889 9.87242 56.3202 11.6182 55.9368 14.067C55.7375 15.2886 56.0209 16.4567 56.7138 17.2713C57.3495 18.0203 58.259 18.3324 59.341 18.3324C61.1982 18.3324 62.2281 17.1382 62.2281 17.1382L62.1351 17.7178C62.1268 17.7696 62.1299 17.8226 62.1441 17.8731C62.1582 17.9236 62.1832 17.9705 62.2172 18.0104C62.2512 18.0504 62.2935 18.0825 62.3411 18.1045C62.3888 18.1266 62.4406 18.138 62.4931 18.1381H64.3719C64.5162 18.1382 64.6558 18.0867 64.7654 17.9929C64.8751 17.8991 64.9476 17.7692 64.97 17.6267L66.0973 10.4877C66.1056 10.436 66.1026 10.3831 66.0884 10.3327C66.0743 10.2822 66.0494 10.2355 66.0154 10.1956C65.9814 10.1558 65.9392 10.1238 65.8916 10.1019C65.8441 10.0799 65.7924 10.0686 65.74 10.0686ZM62.8325 14.1282C62.6313 15.3198 61.6855 16.1198 60.4792 16.1198C59.8735 16.1198 59.3895 15.9255 59.0786 15.5574C58.7704 15.1918 58.6532 14.6715 58.7513 14.0919C58.9392 12.9104 59.9009 12.0844 61.0887 12.0844C61.681 12.0844 62.1625 12.2812 62.4797 12.6525C62.7975 13.0276 62.9236 13.5512 62.8325 14.1282ZM76.8488 10.0686H74.7528C74.6539 10.0687 74.5566 10.093 74.4692 10.1393C74.3819 10.1856 74.3072 10.2525 74.2515 10.3342L71.3606 14.5925L70.1352 10.5004C70.0976 10.3756 70.0208 10.2662 69.9162 10.1884C69.8116 10.1107 69.6847 10.0686 69.5544 10.0686H67.4946C67.4368 10.0684 67.3798 10.0821 67.3283 10.1084C67.2769 10.1348 67.2324 10.173 67.1987 10.22C67.165 10.267 67.143 10.3213 67.1346 10.3785C67.1261 10.4357 67.1314 10.4941 67.1501 10.5488L69.4588 17.3242L67.2883 20.3883C67.2497 20.4426 67.2268 20.5065 67.2222 20.573C67.2175 20.6394 67.2312 20.7059 67.2618 20.7651C67.2924 20.8243 67.3386 20.8739 67.3956 20.9086C67.4525 20.9432 67.5178 20.9615 67.5845 20.9615H69.6779C69.7757 20.9616 69.872 20.9381 69.9586 20.8928C70.0453 20.8475 70.1196 20.7819 70.1754 20.7016L77.1469 10.6386C77.1847 10.5842 77.2068 10.5204 77.211 10.4543C77.2151 10.3881 77.201 10.3221 77.1703 10.2634C77.1396 10.2047 77.0934 10.1555 77.0368 10.1211C76.9801 10.0868 76.9151 10.0686 76.8488 10.0686Z" fill="#253B80"/>
<path d="M83.7883 6.03915H79.4319C79.2878 6.03921 79.1485 6.09069 79.039 6.18433C78.9294 6.27797 78.8569 6.40761 78.8345 6.54994L77.0728 17.7193C77.0646 17.771 77.0677 17.8239 77.082 17.8743C77.0962 17.9247 77.1212 17.9715 77.1552 18.0113C77.1892 18.0511 77.2315 18.0831 77.279 18.1051C77.3266 18.127 77.3784 18.1383 77.4308 18.1383H79.6663C79.7671 18.1382 79.8646 18.1021 79.9412 18.0365C80.0178 17.9708 80.0685 17.88 80.0841 17.7804L80.5841 14.6144C80.6064 14.4719 80.6788 14.3421 80.7883 14.2484C80.8979 14.1546 81.0373 14.103 81.1815 14.1029H82.5597C85.4296 14.1029 87.0849 12.7145 87.518 9.96309C87.7135 8.75935 87.5256 7.81355 86.962 7.15118C86.3435 6.42384 85.2462 6.03915 83.7883 6.03915ZM84.2908 10.1185C84.0532 11.6815 82.8591 11.6815 81.7037 11.6815H81.0471L81.5088 8.76254C81.5221 8.67714 81.5654 8.5993 81.6311 8.54311C81.6967 8.48691 81.7804 8.45608 81.8668 8.45619H82.168C82.954 8.45619 83.6966 8.45619 84.08 8.90457C84.3086 9.17206 84.3781 9.56949 84.2908 10.1185ZM96.8078 10.0682H94.7232C94.6368 10.0679 94.5531 10.0987 94.4874 10.1549C94.4218 10.2112 94.3784 10.2891 94.3653 10.3745L94.273 10.9579L94.1265 10.7465C93.6749 10.0911 92.6686 9.87202 91.6636 9.87202C89.3586 9.87202 87.3906 11.6178 87.0072 14.0666C86.8085 15.2882 87.0906 16.4563 87.7836 17.2709C88.4205 18.0199 89.3287 18.332 90.4108 18.332C92.268 18.332 93.2979 17.1378 93.2979 17.1378L93.2049 17.7174C93.1966 17.7693 93.1996 17.8224 93.2139 17.873C93.2281 17.9236 93.2532 17.9705 93.2874 18.0105C93.3215 18.0505 93.364 18.0826 93.4117 18.1045C93.4595 18.1265 93.5115 18.1378 93.5641 18.1377H95.4423C95.5865 18.1376 95.7259 18.0861 95.8354 17.9923C95.945 17.8985 96.0174 17.7687 96.0397 17.6263L97.1677 10.4873C97.1757 10.4354 97.1723 10.3824 97.1579 10.332C97.1435 10.2815 97.1183 10.2348 97.0842 10.1949C97.05 10.1551 97.0076 10.1232 96.9599 10.1013C96.9122 10.0794 96.8603 10.0681 96.8078 10.0682ZM93.9004 14.1278C93.7004 15.3194 92.7533 16.1194 91.547 16.1194C90.9426 16.1194 90.4573 15.9251 90.1465 15.557C89.8382 15.1914 89.7223 14.6711 89.8191 14.0915C90.0083 12.91 90.9687 12.084 92.1565 12.084C92.7488 12.084 93.2303 12.2808 93.5475 12.6521C93.8666 13.0272 93.9927 13.5508 93.9004 14.1278ZM99.2669 6.3455L97.4791 17.7193C97.4709 17.771 97.474 17.8239 97.4883 17.8743C97.5025 17.9247 97.5275 17.9715 97.5615 18.0113C97.5955 18.0511 97.6378 18.0831 97.6853 18.1051C97.7329 18.127 97.7847 18.1383 97.8371 18.1383H99.6344C99.9331 18.1383 100.187 17.9218 100.232 17.6269L101.995 6.45823C102.004 6.40646 102 6.35353 101.986 6.30308C101.972 6.25263 101.947 6.20586 101.913 6.16598C101.879 6.1261 101.837 6.09405 101.789 6.07205C101.742 6.05005 101.69 6.03861 101.637 6.03851H99.6248C99.5384 6.03882 99.4549 6.06988 99.3894 6.12613C99.3238 6.18238 99.2804 6.26015 99.2669 6.3455Z" fill="#179BD7"/>
<path fill-rule="evenodd" clip-rule="evenodd" d="M162 20.094C162 21.3506 161.209 21.9363 159.793 21.9363H157.088V20.6797H159.793C160.043 20.6797 160.251 20.6381 160.335 20.5546C160.418 20.4705 160.501 20.3448 160.501 20.1775C160.501 20.0096 160.418 19.8423 160.335 19.7589C160.251 19.6748 160.085 19.6332 159.835 19.6332C158.545 19.591 156.921 19.6748 156.921 17.8322C156.921 16.9943 157.462 16.0728 158.919 16.0728H161.708V17.3294H159.127C158.878 17.3294 158.711 17.3294 158.586 17.4129C158.461 17.5386 158.378 17.6643 158.378 17.8738C158.378 18.0833 158.503 18.209 158.669 18.2931C158.836 18.3347 159.003 18.3766 159.211 18.3766H159.96C160.751 18.3766 161.251 18.5438 161.584 18.8374C161.833 19.1304 162 19.5078 162 20.094ZM156.13 18.8374C155.797 18.5438 155.297 18.3766 154.506 18.3766H153.757C153.549 18.3766 153.382 18.3344 153.216 18.2931C153.049 18.209 152.925 18.0833 152.925 17.8738C152.925 17.6643 152.966 17.5386 153.132 17.4129C153.257 17.3294 153.424 17.3294 153.674 17.3294H156.255V16.0728H153.466C151.967 16.0728 151.467 16.9943 151.467 17.8322C151.467 19.6745 153.091 19.591 154.382 19.6332C154.631 19.6332 154.798 19.6748 154.881 19.7589C154.964 19.8423 155.048 20.0096 155.048 20.1775C155.048 20.3448 154.964 20.4705 154.881 20.5546C154.756 20.6381 154.59 20.6797 154.34 20.6797H151.634V21.9363H154.34C155.755 21.9363 156.546 21.3503 156.546 20.094C156.546 19.5078 156.38 19.1304 156.13 18.8374ZM150.801 20.7222H147.513V19.5494H150.718V18.3772H147.513V17.2878H150.801V16.0734H146.139V21.9366H150.801V20.7222ZM144.64 16.3667C144.181 16.1153 143.64 16.0731 142.933 16.0731H139.727V21.9363H141.142V19.8004H142.641C143.141 19.8004 143.432 19.8426 143.641 20.0518C143.89 20.3448 143.89 20.8476 143.89 21.2246V21.9363H145.264V20.8054C145.264 20.261 145.223 20.0096 145.056 19.7167C144.931 19.5488 144.682 19.3396 144.349 19.2139C144.723 19.0888 145.348 18.586 145.348 17.6643C145.348 16.9946 145.098 16.6175 144.64 16.3667ZM136.73 16.0731H132.275L130.485 17.9998L128.778 16.0731H123.157V21.9363H128.695L130.485 20.0096L132.192 21.9363H134.898V19.9683H136.647C137.854 19.9683 139.062 19.6332 139.062 17.9998C139.061 16.4083 137.812 16.0731 136.73 16.0731ZM143.515 18.5026C143.307 18.586 143.099 18.586 142.849 18.586L141.142 18.6282V17.2875H142.849C143.099 17.2875 143.349 17.2875 143.515 17.4132C143.682 17.4973 143.807 17.6646 143.807 17.916C143.807 18.1674 143.682 18.3769 143.515 18.5026ZM136.73 18.7955H134.898V17.2875H136.73C137.229 17.2875 137.562 17.4973 137.562 17.9998C137.562 18.5026 137.229 18.7955 136.73 18.7955ZM131.359 19.0047L133.524 16.7016V21.4341L131.359 19.0047ZM127.987 20.7222H124.531V19.5494H127.612V18.3772H124.531V17.2878H128.028L129.569 19.005L127.987 20.7222ZM158.128 11.8431H156.13L153.507 7.44542V11.8431H150.677L150.135 10.5446H147.221L146.68 11.8431H145.056C144.39 11.8431 143.515 11.6755 143.016 11.1727C142.558 10.6703 142.308 10.0002 142.308 8.9531C142.308 8.07357 142.433 7.27783 143.057 6.64968C143.473 6.18881 144.223 5.97963 145.18 5.97963H146.512V7.23624H145.18C144.681 7.23624 144.389 7.32003 144.098 7.57141C143.848 7.82279 143.723 8.28335 143.723 8.9115C143.723 9.53965 143.848 10.0005 144.098 10.2938C144.306 10.503 144.681 10.5868 145.055 10.5868H145.68L147.678 5.97994H149.76L152.091 11.5082V5.97963H154.256L156.713 10.0421V5.97963H158.128V11.8431H158.128ZM141.6 5.97963H140.185V11.8431H141.6V5.97963ZM138.644 6.23102C138.186 5.97963 137.687 5.97963 136.979 5.97963H133.774V11.8431H135.147V9.70694H136.646C137.146 9.70694 137.479 9.74884 137.687 9.95832C137.937 10.2516 137.895 10.7544 137.895 11.0892V11.8431H139.31V10.6703C139.31 10.1678 139.269 9.91642 139.061 9.62315C138.936 9.45556 138.686 9.24607 138.395 9.12069C138.769 8.9531 139.394 8.49254 139.394 7.57111C139.394 6.90106 139.102 6.52399 138.644 6.23102ZM132.774 10.6287H129.527V9.45586H132.733V8.24146H129.527V7.19434H132.774V5.97994H128.112V11.8434H132.774V10.6287ZM127.071 5.97963H124.781L123.074 9.95832L121.242 5.97963H118.994V11.5079L116.621 5.97963H114.54L112.042 11.8431H113.541L114.082 10.5446H116.996L117.537 11.8431H120.368V7.23624L122.408 11.8431H123.615L125.655 7.23624V11.8431H127.071V5.97963H127.071ZM149.636 9.28827L148.678 6.98486L147.72 9.28827H149.636ZM137.562 8.36715C137.354 8.49284 137.146 8.49284 136.855 8.49284H135.147V7.19464H136.854C137.104 7.19464 137.395 7.19464 137.562 7.27844C137.728 7.40413 137.812 7.57172 137.812 7.82279C137.812 8.07387 137.729 8.28305 137.562 8.36715ZM114.581 9.28827L115.539 6.98486L116.496 9.28827H114.581ZM161.667 0H112V8.70202L113.707 4.80713H117.329L117.828 5.77045V4.80713H122.075L123.033 6.90106L123.948 4.80713H137.479C138.103 4.80713 138.644 4.93282 139.061 5.26769V4.80713H142.766V5.26769C143.39 4.93251 144.181 4.80713 145.097 4.80713H150.468L150.967 5.77045V4.80713H154.922L155.505 5.77045V4.80713H159.377V13.0159H155.464L154.715 11.7596V13.0159H149.844L149.302 11.6758H148.095L147.554 13.0159H145.014C144.015 13.0159 143.265 12.7645 142.766 12.5134V13.0159H136.73V11.1311C136.73 10.8797 136.688 10.8379 136.521 10.8379H136.313V13.0156H124.656V11.9685L124.24 13.0156H121.784L121.368 12.0104V13.0156H116.663L116.163 11.6755H114.956L114.415 13.0156H112V27H161.667V22.732C161.126 22.9834 160.376 23.1091 159.627 23.1091H156.005V22.6063C155.589 22.9418 154.839 23.1091 154.132 23.1091H142.724V21.2246C142.724 20.9733 142.683 20.9733 142.474 20.9733H142.267V23.1091H138.52V20.8895C137.895 21.1824 137.187 21.1824 136.563 21.1824H136.147V23.1091H131.567L130.485 21.8525L129.278 23.1091H121.908V14.9006H129.402L130.485 16.1566L131.65 14.9006H136.688C137.27 14.9006 138.228 14.9841 138.644 15.4028V14.9006H143.141C143.599 14.9006 144.473 14.9841 145.056 15.4028V14.9006H151.842V15.4031C152.217 15.0679 152.925 14.9009 153.549 14.9009H157.337V15.4031C157.754 15.1101 158.336 14.9009 159.086 14.9009H161.667V0Z" fill="#9A9CAA"/>
<path fill-rule="evenodd" clip-rule="evenodd" d="M191.355 22.1242H195.843L198.648 4.88644H194.16L191.355 22.1242ZM183.301 16.7427L187.58 4.88644H192.41L185.27 22.1247H180.594L176.694 7.1486C174.163 5.62835 172 5.17832 172 5.17832L172 5.17788C172 5.17786 172 5.17785 172 5.17785L172.083 4.88598H179.156C181.103 4.88598 181.285 6.43804 181.285 6.43804L182.795 14.19C182.795 14.19 182.795 14.1898 182.795 14.1894L182.795 14.1905L182.795 14.1896L183.301 16.7427ZM227 22.1242H222.879L222.354 19.5637H216.648L215.713 22.1242H211.034L217.728 6.17061C217.728 6.17061 218.134 4.88598 219.799 4.88598H223.407L227 22.1242ZM220.299 9.57583L217.941 16.0266H221.625L220.299 9.57583ZM212.026 5.33002L211.385 9.03173C209.465 7.97351 205.094 7.72313 205.094 9.6722C205.094 10.4465 206.083 10.979 207.274 11.6208C209.082 12.5942 211.357 13.819 211.357 16.52C211.357 20.8359 206.737 22.4216 203.674 22.4216C200.612 22.4216 198.608 21.4482 198.608 21.4482L199.275 17.5778C201.113 19.0528 206.681 19.472 206.681 17.1328C206.681 16.1499 205.585 15.5702 204.314 14.898C202.56 13.9706 200.473 12.867 200.473 10.285C200.473 5.55181 205.762 4.57843 207.989 4.57843C210.05 4.57843 212.026 5.33002 212.026 5.33002Z" fill="#E6A540"/>
</g>
</svg>
