<svg width="24" height="24" viewBox="0 0 24 24" fill="none" xmlns="http://www.w3.org/2000/svg">
<path d="M22.6086 18.4251L17.5274 13.8051C17.2872 13.5867 16.9715 13.4703 16.6471 13.4803C16.3227 13.4904 16.0149 13.6261 15.7886 13.8588L12.7974 16.9351C12.0774 16.7976 10.6299 16.3463 9.13986 14.8601C7.64986 13.3688 7.19861 11.9176 7.06486 11.2026L10.1386 8.21005C10.3716 7.98396 10.5075 7.67608 10.5176 7.35156C10.5276 7.02704 10.411 6.71136 10.1924 6.4713L5.57361 1.3913C5.35492 1.1505 5.05096 1.00443 4.72631 0.984129C4.40165 0.963823 4.08186 1.07088 3.83486 1.28255L1.12236 3.6088C0.906253 3.8257 0.777264 4.11437 0.759864 4.42005C0.741114 4.73255 0.383614 12.1351 6.12361 17.8776C11.1311 22.8838 17.4036 23.2501 19.1311 23.2501C19.3836 23.2501 19.5386 23.2426 19.5799 23.2401C19.8855 23.2229 20.174 23.0934 20.3899 22.8763L22.7149 20.1626C22.9274 19.9163 23.0352 19.5968 23.0154 19.2722C22.9955 18.9475 22.8495 18.6435 22.6086 18.4251Z" fill="black"/>
</svg>
