<svg width="16" height="16" viewBox="0 0 16 16" fill="none" xmlns="http://www.w3.org/2000/svg">
<path d="M8 0C3.58133 0 0 3.58133 0 8C0 11.3907 2.10933 14.2843 5.08433 15.45C5.01567 14.8157 4.95 13.8467 5.11267 13.1563C5.25933 12.5313 6.05 9.18133 6.05 9.18133C6.05 9.18133 5.80933 8.703 5.80933 7.99367C5.80933 6.88133 6.453 6.05 7.256 6.05C7.93733 6.05 8.26867 6.56267 8.26867 7.178C8.26867 7.86566 7.83133 8.89066 7.60633 9.84066C7.41867 10.6373 8.00633 11.2873 8.79067 11.2873C10.2123 11.2873 11.3063 9.78733 11.3063 7.625C11.3063 5.70933 9.93133 4.36867 7.96567 4.36867C5.69067 4.36867 4.353 6.075 4.353 7.84066C4.353 8.528 4.61867 9.26566 4.95 9.66566C5.01567 9.74366 5.025 9.81566 5.00633 9.89366C4.947 10.147 4.80967 10.6903 4.78433 10.8C4.75 10.9467 4.66867 10.978 4.51567 10.9063C3.51567 10.4407 2.89067 8.98133 2.89067 7.80633C2.89067 5.28133 4.725 2.96567 8.175 2.96567C10.95 2.96567 13.1063 4.94367 13.1063 7.58733C13.1063 10.344 11.3687 12.5623 8.95633 12.5623C8.147 12.5623 7.38433 12.1407 7.122 11.6437C7.122 11.6437 6.722 13.172 6.625 13.547C6.44367 14.2403 5.95633 15.1127 5.63133 15.6437C6.3986 15.8804 7.19706 16.0005 8 16C12.4187 16 16 12.4187 16 8C16 3.58133 12.4187 0 8 0Z" fill="#636270"/>
</svg>
