<svg width="16" height="16" viewBox="0 0 16 16" fill="none" xmlns="http://www.w3.org/2000/svg">
<g clip-path="url(#clip0_13_1186)">
<path d="M5.03333 14.5001C11.07 14.5001 14.3723 9.49807 14.3723 5.1614C14.3723 5.02073 14.369 4.87707 14.3627 4.7364C15.0052 4.27173 15.5596 3.69615 16 3.03673C15.4017 3.30273 14.7667 3.47673 14.116 3.55207C14.8008 3.1416 15.3136 2.49675 15.5593 1.73707C14.915 2.11896 14.2104 2.38837 13.4757 2.53373C12.9807 2.00751 12.3261 1.65904 11.6132 1.54222C10.9002 1.4254 10.1687 1.54673 9.53161 1.88746C8.89456 2.22818 8.38752 2.76931 8.08891 3.42715C7.79031 4.08499 7.71677 4.8229 7.87967 5.52673C6.575 5.46127 5.29865 5.12236 4.13336 4.53199C2.96806 3.94162 1.93984 3.11297 1.11533 2.09973C0.696305 2.82223 0.568091 3.67717 0.756747 4.4908C0.945403 5.30443 1.43677 6.0157 2.131 6.48007C1.60977 6.46355 1.09995 6.32324 0.643667 6.07073V6.1114C0.643231 6.86956 0.905349 7.60448 1.38547 8.19125C1.86559 8.77802 2.53409 9.18042 3.27733 9.33007C2.79463 9.46215 2.28801 9.48143 1.79667 9.3864C2.00644 10.0384 2.41454 10.6087 2.964 11.0176C3.51346 11.4265 4.17688 11.6537 4.86167 11.6674C4.18054 12.2026 3.40049 12.5981 2.56623 12.8312C1.73197 13.0644 0.859899 13.1306 0 13.0261C1.50191 13.9895 3.24899 14.5011 5.03333 14.5001Z" fill="#636270"/>
</g>
<defs>
<clipPath id="clip0_13_1186">
<rect width="16" height="16" fill="white"/>
</clipPath>
</defs>
</svg>
