<svg width="16" height="12" viewBox="0 0 16 12" fill="none" xmlns="http://www.w3.org/2000/svg">
<path d="M15.8407 2.79995C15.8407 2.79995 15.6843 1.69661 15.203 1.21261C14.5937 0.574948 13.9123 0.571948 13.6 0.534282C11.3627 0.371948 8.00333 0.371948 8.00333 0.371948H7.99667C7.99667 0.371948 4.63767 0.371948 2.4 0.534282C2.08733 0.571948 1.40633 0.574948 0.796667 1.21261C0.316 1.69661 0.162667 2.79995 0.162667 2.79995C0.162667 2.79995 0 4.09662 0 5.39062V6.60295C0 7.89695 0.159333 9.19362 0.159333 9.19362C0.159333 9.19362 0.315667 10.2969 0.793667 10.7813C1.403 11.4186 2.203 11.3969 2.55933 11.4656C3.84067 11.5876 8 11.6249 8 11.6249C8 11.6249 11.3623 11.6186 13.6 11.4593C13.9127 11.4219 14.5937 11.4186 15.2033 10.7813C15.6843 10.2969 15.8407 9.19362 15.8407 9.19362C15.8407 9.19362 16 7.90028 16 6.60328V5.39095C16 4.09728 15.8407 2.80028 15.8407 2.80028V2.79995ZM6.34667 8.07495V3.57828L10.6683 5.83428L6.34667 8.07495Z" fill="#636270"/>
</svg>
